<svg height="512" viewBox="0 0 128 128" width="512" xmlns="http://www.w3.org/2000/svg"><path d="m114.354 98.882a13.435 13.435 0 1 0 -19.708 0 12.184 12.184 0 0 0 -8.646 11.642v8.961a3 3 0 0 0 3 3h31a3 3 0 0 0 3-3v-8.961a12.184 12.184 0 0 0 -8.646-11.642z" fill="#e6e7e8"/><path d="m37.353 98.882a13.435 13.435 0 1 0 -19.707 0 12.183 12.183 0 0 0 -8.646 11.642v8.961a3 3 0 0 0 3 3h31a3 3 0 0 0 3-3v-8.961a12.185 12.185 0 0 0 -8.647-11.642z" fill="#e6e7e8"/><path d="m90.125 77.129 5.489-5.489a3.16 3.16 0 0 0 0-4.472l-3.129-3.129a30.86 30.86 0 0 0 3.935-9.48h4.418a3.166 3.166 0 0 0 3.162-3.159v-7.767a3.166 3.166 0 0 0 -3.162-3.162h-4.418a30.866 30.866 0 0 0 -3.935-9.481l3.129-3.129a3.159 3.159 0 0 0 0-4.471l-5.489-5.49a3.169 3.169 0 0 0 -4.472 0l-3.129 3.129a30.893 30.893 0 0 0 -9.48-3.934v-4.418a3.166 3.166 0 0 0 -3.162-3.162h-7.764a3.166 3.166 0 0 0 -3.162 3.162v4.423a30.908 30.908 0 0 0 -9.481 3.934l-3.129-3.134a3.164 3.164 0 0 0 -4.471 0l-5.49 5.49a3.164 3.164 0 0 0 0 4.471l3.129 3.129a30.863 30.863 0 0 0 -3.934 9.481h-4.418a3.165 3.165 0 0 0 -3.162 3.162v7.767a3.166 3.166 0 0 0 3.162 3.162h4.418a30.882 30.882 0 0 0 3.934 9.48l-3.13 3.129a3.167 3.167 0 0 0 0 4.472l5.49 5.489a3.163 3.163 0 0 0 4.471 0l3.13-3.132a30.933 30.933 0 0 0 9.481 3.934v4.418a3.166 3.166 0 0 0 3.162 3.162h7.764a3.166 3.166 0 0 0 3.162-3.162v-4.417a30.927 30.927 0 0 0 9.48-3.935l3.129 3.129a3.167 3.167 0 0 0 4.472 0z" fill="#e6e7e8"/><path d="m75.352 104.655a1 1 0 0 0 -1.639.77v2.268h-23.213a1 1 0 0 0 -1 1v4.721a1 1 0 0 0 1 1h23.213v2.269a1 1 0 0 0 1.639.769l6.787-5.629a1 1 0 0 0 0-1.539z" fill="#e6e7e8"/><path d="m81.5 96.114h-23.213v-2.268a1 1 0 0 0 -1.639-.77l-6.787 5.629a1 1 0 0 0 0 1.539l6.787 5.629a1 1 0 0 0 .639.231 1.012 1.012 0 0 0 .425-.095 1 1 0 0 0 .575-.905v-2.269h23.213a1 1 0 0 0 1-1v-4.721a1 1 0 0 0 -1-1z" fill="#e6e7e8"/><path d="m111.017 95.432a13 13 0 0 1 -16.08 0 11.164 11.164 0 0 0 -9.919 11.092v8.961a2 2 0 0 0 2 2h31.918a2 2 0 0 0 2-2v-8.961a11.164 11.164 0 0 0 -9.919-11.092z" fill="#ffd7e5"/><ellipse cx="102.977" cy="85.781" fill="#fff" rx="12.761" ry="12.435"/><path d="m32 95.432a13 13 0 0 1 -16.08 0 11.164 11.164 0 0 0 -9.92 11.092v8.961a2 2 0 0 0 2 2h31.917a2 2 0 0 0 2-2v-8.961a11.163 11.163 0 0 0 -9.917-11.092z" fill="#6dc9f7"/><path d="m39.865 114.485h-31.813a2.026 2.026 0 0 1 -2.052-2v3a2.026 2.026 0 0 0 2.052 2h31.813a2.026 2.026 0 0 0 2.052-2v-3a2.026 2.026 0 0 1 -2.052 2z" fill="#fff"/><ellipse cx="23.959" cy="85.781" fill="#fff" rx="12.761" ry="12.435"/><ellipse cx="63.468" cy="43.515" fill="#0089ef" rx="22.036" ry="21.473"/><path d="m49.023 48.758a4.593 4.593 0 0 1 -1.891-1.936 6.872 6.872 0 0 1 0-5.89 4.607 4.607 0 0 1 1.891-1.932 6.35 6.35 0 0 1 6.432.43 1.169 1.169 0 0 1 .33.369.989.989 0 0 1 .1.46 1.059 1.059 0 0 1 -.228.684.693.693 0 0 1 -.56.284 1.245 1.245 0 0 1 -.386-.054 1.462 1.462 0 0 1 -.37-.192 5.4 5.4 0 0 0 -1.167-.576 3.68 3.68 0 0 0 -1.151-.176 2.8 2.8 0 0 0 -2.278.913 4.168 4.168 0 0 0 -.764 2.727q0 3.657 3.042 3.656a3.406 3.406 0 0 0 1.1-.177 6.969 6.969 0 0 0 1.214-.576 2.259 2.259 0 0 1 .394-.192 1.145 1.145 0 0 1 .362-.053.7.7 0 0 1 .56.284 1.056 1.056 0 0 1 .228.683.988.988 0 0 1 -.1.469 1.156 1.156 0 0 1 -.323.361 6.35 6.35 0 0 1 -6.432.43z" fill="#fff"/><path d="m66.82 48.435a.859.859 0 0 1 -.354.707 1.347 1.347 0 0 1 -1.411.138 1.164 1.164 0 0 1 -.473-.43l-2.082-3.011a1.853 1.853 0 0 0 -.567-.576 1.48 1.48 0 0 0 -.757-.176h-1.276v3.1a1.113 1.113 0 0 1 -1.2 1.2 1.229 1.229 0 0 1 -.9-.322 1.166 1.166 0 0 1 -.332-.876v-8.6a1.1 1.1 0 0 1 .3-.829 1.172 1.172 0 0 1 .851-.292h3.961a4.513 4.513 0 0 1 2.956.837 2.977 2.977 0 0 1 1 2.42 3.075 3.075 0 0 1 -.709 2.073 3.428 3.428 0 0 1 -2 1.091 2.1 2.1 0 0 1 .844.361 3.145 3.145 0 0 1 .717.775l1.2 1.752a1.156 1.156 0 0 1 .232.658zm-3.073-5.522a1.6 1.6 0 0 0 0-2.266 2.6 2.6 0 0 0 -1.53-.353h-2.349v2.98h2.349a2.548 2.548 0 0 0 1.53-.361z" fill="#fff"/><path d="m79.234 38.72a1.168 1.168 0 0 1 .323.852v8.728a1.064 1.064 0 0 1 -.3.8 1.08 1.08 0 0 1 -.787.291 1.017 1.017 0 0 1 -1.07-1.091v-5.425l-2.238 4.1a1.747 1.747 0 0 1 -.48.584 1.133 1.133 0 0 1 -1.238 0 1.682 1.682 0 0 1 -.489-.584l-2.239-4.025v5.35a1.081 1.081 0 1 1 -2.159 0v-8.728a1.161 1.161 0 0 1 .324-.852 1.122 1.122 0 0 1 .842-.331 1.241 1.241 0 0 1 1.151.784l3.2 5.914 3.184-5.914a1.276 1.276 0 0 1 1.135-.784 1.125 1.125 0 0 1 .841.331z" fill="#fff"/><path d="m101.438 47.4v-7.767a2.191 2.191 0 0 0 -2.219-2.162h-5.362a29.616 29.616 0 0 0 -4.52-10.617l3.8-3.7a2.122 2.122 0 0 0 0-3.057l-5.637-5.49a2.261 2.261 0 0 0 -3.138 0l-3.8 3.7a31.285 31.285 0 0 0 -10.892-4.407v-5.223a2.191 2.191 0 0 0 -2.219-2.162h-7.967a2.191 2.191 0 0 0 -2.218 2.162v5.223a31.277 31.277 0 0 0 -10.9 4.406l-3.8-3.7a2.26 2.26 0 0 0 -3.137 0l-5.629 5.494a2.123 2.123 0 0 0 0 3.057l3.8 3.7a29.618 29.618 0 0 0 -4.521 10.617h-5.362a2.191 2.191 0 0 0 -2.217 2.159v7.767a2.191 2.191 0 0 0 2.219 2.162h5.361a29.633 29.633 0 0 0 4.52 10.614l-3.8 3.7a2.124 2.124 0 0 0 0 3.058l5.634 5.49a2.26 2.26 0 0 0 3.137 0l3.8-3.7a31.256 31.256 0 0 0 10.9 4.405v5.225a2.191 2.191 0 0 0 2.218 2.162h7.967a2.191 2.191 0 0 0 2.219-2.162v-5.226a31.264 31.264 0 0 0 10.9-4.405l3.8 3.7a2.261 2.261 0 0 0 3.138 0l5.633-5.49a2.123 2.123 0 0 0 0-3.058l-3.8-3.7a29.631 29.631 0 0 0 4.52-10.617h5.362a2.191 2.191 0 0 0 2.21-2.158zm-37.97 17.588c-12.17 0-22.036-9.614-22.036-21.473s9.868-21.473 22.036-21.473 22.032 9.613 22.032 21.473-9.862 21.473-22.032 21.473z" fill="#fa759e"/><path d="m79.374 107.054-6.965-5.629v3.268h-24.848v4.721h24.848v3.268z" fill="#6dc9f7"/><path d="m47.561 95.475 6.965 5.629v-3.269h24.848v-4.721h-24.848v-3.268z" fill="#ffd7e5"/><g fill="#3a2c60"><path d="m113.111 94.838a13.194 13.194 0 0 0 3.627-9.057 13.765 13.765 0 0 0 -27.522 0 13.2 13.2 0 0 0 3.626 9.057 12.175 12.175 0 0 0 -8.824 11.686v8.961a3 3 0 0 0 3 3h14.334a1 1 0 0 0 0-2h-14.334a1 1 0 0 1 -1-1v-8.961a10.172 10.172 0 0 1 8.672-10.043 13.922 13.922 0 0 0 16.574 0 10.171 10.171 0 0 1 8.671 10.043v8.961a1 1 0 0 1 -1 1h-5.335a1 1 0 0 0 0 2h5.333a3 3 0 0 0 3-3v-8.961a12.175 12.175 0 0 0 -8.822-11.686zm-21.9-9.057a11.766 11.766 0 1 1 11.761 11.435 11.614 11.614 0 0 1 -11.756-11.435z"/><path d="m110.477 116.485h-5.977a1 1 0 0 0 0 2h5.977a1 1 0 0 0 0-2z"/><path d="m34.093 94.838a13.2 13.2 0 0 0 3.627-9.057 13.617 13.617 0 0 0 -13.762-13.435 13.615 13.615 0 0 0 -13.758 13.435 13.2 13.2 0 0 0 3.626 9.057 12.175 12.175 0 0 0 -8.826 11.686v8.961a3 3 0 0 0 3 3h31.917a3 3 0 0 0 3-3v-8.961a12.174 12.174 0 0 0 -8.824-11.686zm-10.135-20.492a11.44 11.44 0 1 1 0 22.87 11.439 11.439 0 1 1 0-22.87zm16.959 41.139a1 1 0 0 1 -1 1h-31.917a1 1 0 0 1 -1-1v-8.961a10.172 10.172 0 0 1 8.672-10.043 13.921 13.921 0 0 0 16.573 0 10.172 10.172 0 0 1 8.672 10.043z"/><path d="m63.468 21.041c-12.7 0-23.036 10.082-23.036 22.474s10.334 22.473 23.036 22.473 23.032-10.081 23.032-22.473-10.33-22.474-23.032-22.474zm0 42.947c-11.6 0-21.036-9.184-21.036-20.473s9.437-20.474 21.036-20.474 21.032 9.185 21.032 20.474-9.433 20.473-21.032 20.473z"/><path d="m88.2 73.139 5.634-5.49a3.125 3.125 0 0 0 0-4.49l-3.2-3.122a30.449 30.449 0 0 0 4.032-9.478h4.56a3.2 3.2 0 0 0 3.218-3.163v-7.763a3.2 3.2 0 0 0 -3.218-3.162h-4.56a30.449 30.449 0 0 0 -4.032-9.478l3.2-3.122a3.127 3.127 0 0 0 0-4.491l-5.634-5.489a3.269 3.269 0 0 0 -4.534 0l-3.233 3.15a32.121 32.121 0 0 0 -9.763-3.951v-4.413a3.2 3.2 0 0 0 -3.219-3.162h-7.967a3.194 3.194 0 0 0 -3.218 3.162v4.413a32.147 32.147 0 0 0 -9.766 3.951l-3.233-3.15a3.268 3.268 0 0 0 -4.533 0l-5.634 5.489a3.124 3.124 0 0 0 0 4.491l3.2 3.122a30.475 30.475 0 0 0 -4.033 9.478h-4.55a3.2 3.2 0 0 0 -3.217 3.162v7.767a3.2 3.2 0 0 0 3.219 3.163h4.559a30.475 30.475 0 0 0 4.033 9.478l-3.2 3.122a3.123 3.123 0 0 0 0 4.49l5.634 5.49a3.268 3.268 0 0 0 4.533 0l3.222-3.155a32.1 32.1 0 0 0 9.762 3.951v4.414a3.194 3.194 0 0 0 3.218 3.162h7.967a3.2 3.2 0 0 0 3.219-3.162v-4.414a32.07 32.07 0 0 0 9.761-3.951l3.233 3.151a3.27 3.27 0 0 0 4.54 0zm-3.14-1.433-3.8-3.7a1 1 0 0 0 -1.241-.124 30.147 30.147 0 0 1 -10.547 4.264 1 1 0 0 0 -.806.981v5.225a1.193 1.193 0 0 1 -1.219 1.162h-7.963a1.192 1.192 0 0 1 -1.218-1.162v-5.224a1 1 0 0 0 -.807-.981 30.149 30.149 0 0 1 -10.546-4.264 1 1 0 0 0 -1.241.124l-3.8 3.7a1.256 1.256 0 0 1 -1.742 0l-5.63-5.49a1.123 1.123 0 0 1 0-1.625l3.8-3.7a1 1 0 0 0 .13-1.278 28.519 28.519 0 0 1 -4.369-10.26 1 1 0 0 0 -.979-.8h-5.365a1.194 1.194 0 0 1 -1.217-1.154v-7.767a1.193 1.193 0 0 1 1.219-1.162h5.361a1 1 0 0 0 .979-.8 28.534 28.534 0 0 1 4.369-10.26 1 1 0 0 0 -.13-1.278l-3.8-3.7a1.123 1.123 0 0 1 0-1.625l5.634-5.49a1.256 1.256 0 0 1 1.742 0l3.8 3.7a1 1 0 0 0 1.241.124 30.151 30.151 0 0 1 10.546-4.265 1 1 0 0 0 .807-.981v-5.219a1.192 1.192 0 0 1 1.218-1.162h7.967a1.193 1.193 0 0 1 1.217 1.162v5.223a1 1 0 0 0 .806.981 30.149 30.149 0 0 1 10.547 4.265 1 1 0 0 0 1.241-.124l3.8-3.7a1.255 1.255 0 0 1 1.742 0l5.633 5.49a1.123 1.123 0 0 1 0 1.625l-3.8 3.7a1 1 0 0 0 -.129 1.278 28.569 28.569 0 0 1 4.369 10.26 1 1 0 0 0 .978.8h5.362a1.192 1.192 0 0 1 1.218 1.162v7.763a1.193 1.193 0 0 1 -1.218 1.163h-5.362a1 1 0 0 0 -.978.8 28.554 28.554 0 0 1 -4.369 10.26 1 1 0 0 0 .129 1.278l3.8 3.7a1.123 1.123 0 0 1 0 1.625l-5.639 5.48a1.257 1.257 0 0 1 -1.74 0z"/><path d="m73.038 100.647a1 1 0 0 0 -1.629.778v2.268h-23.848a1 1 0 0 0 -1 1v4.721a1 1 0 0 0 1 1h23.848v2.269a1 1 0 0 0 1.629.777l6.962-5.629a1 1 0 0 0 0-1.555zm.371 9.942v-1.175a1 1 0 0 0 -1-1h-23.848v-2.721h23.848a1 1 0 0 0 1-1v-1.175l4.374 3.536z"/><path d="m79.374 92.115h-23.848v-2.269a1 1 0 0 0 -1.628-.778l-6.965 5.632a1 1 0 0 0 0 1.555l6.965 5.629a1 1 0 0 0 1.628-.778v-2.271h23.848a1 1 0 0 0 1-1v-4.72a1 1 0 0 0 -1-1zm-1 4.72h-23.848a1 1 0 0 0 -1 1v1.175l-4.374-3.535 4.374-3.536v1.176a1 1 0 0 0 1 1h23.848z"/></g></svg>